<svg width="34" height="30" viewBox="0 0 34 30" fill="none" xmlns="http://www.w3.org/2000/svg">
<path d="M2.83325 10.4715C2.83325 10.0336 2.83325 9.81468 2.85396 9.63026C3.05369 7.85159 4.64838 6.4445 6.66422 6.26827C6.87322 6.25 7.13476 6.25 7.65783 6.25C7.85938 6.25 7.96015 6.25 8.04571 6.24543C9.13828 6.18704 10.095 5.5786 10.5033 4.6825C10.5353 4.61232 10.5651 4.53321 10.6249 4.375C10.6847 4.21679 10.7146 4.13768 10.7465 4.0675C11.1548 3.1714 12.1116 2.56296 13.2041 2.50457C13.2897 2.5 13.3842 2.5 13.5732 2.5H20.4266C20.6156 2.5 20.7102 2.5 20.7957 2.50457C21.8883 2.56296 22.845 3.1714 23.2533 4.0675C23.2853 4.13768 23.3151 4.21679 23.3749 4.375C23.4347 4.53321 23.4646 4.61232 23.4965 4.6825C23.9048 5.5786 24.8616 6.18704 25.9541 6.24543C26.0397 6.25 26.1405 6.25 26.342 6.25C26.8651 6.25 27.1266 6.25 27.3356 6.26827C29.3515 6.4445 30.9461 7.85159 31.1459 9.63026C31.1666 9.81468 31.1666 10.0336 31.1666 10.4715V20.25C31.1666 22.3502 31.1666 23.4003 30.7034 24.2025C30.2959 24.9081 29.6457 25.4817 28.846 25.8413C27.9369 26.25 26.7468 26.25 24.3666 26.25H9.63325C7.25303 26.25 6.06292 26.25 5.15379 25.8413C4.3541 25.4817 3.70394 24.9081 3.29647 24.2025C2.83325 23.4003 2.83325 22.3502 2.83325 20.25V10.4715Z" stroke="black" stroke-width="2" stroke-linecap="round" stroke-linejoin="round"/>
<path d="M16.9999 20.625C20.1295 20.625 22.6666 18.3864 22.6666 15.625C22.6666 12.8636 20.1295 10.625 16.9999 10.625C13.8703 10.625 11.3333 12.8636 11.3333 15.625C11.3333 18.3864 13.8703 20.625 16.9999 20.625Z" stroke="black" stroke-width="2" stroke-linecap="round" stroke-linejoin="round"/>
</svg>
