<svg width="34" height="30" viewBox="0 0 34 30" fill="none" xmlns="http://www.w3.org/2000/svg">
<path d="M30.4582 22.5L21.0475 15M12.9523 15L3.54163 22.5M2.83325 8.75L14.4002 15.8943C15.3369 16.4728 15.8052 16.7621 16.3146 16.8741C16.7646 16.9731 17.2352 16.9731 17.6852 16.8741C18.1946 16.7621 18.663 16.4728 19.5996 15.8943L31.1666 8.75M9.63325 25H24.3666C26.7468 25 27.9369 25 28.846 24.5913C29.6457 24.2317 30.2959 23.6581 30.7034 22.9525C31.1666 22.1503 31.1666 21.1002 31.1666 19V11C31.1666 8.8998 31.1666 7.8497 30.7034 7.04754C30.2959 6.34193 29.6457 5.76825 28.846 5.40873C27.9369 5 26.7468 5 24.3666 5H9.63325C7.25303 5 6.06292 5 5.15379 5.40873C4.3541 5.76825 3.70394 6.34193 3.29647 7.04754C2.83325 7.8497 2.83325 8.8998 2.83325 11V19C2.83325 21.1002 2.83325 22.1503 3.29647 22.9525C3.70394 23.6581 4.3541 24.2317 5.15379 24.5913C6.06292 25 7.25303 25 9.63325 25Z" stroke="black" stroke-width="2" stroke-linecap="round" stroke-linejoin="round"/>
</svg>
