<svg width="34" height="30" viewBox="0 0 34 30" fill="none" xmlns="http://www.w3.org/2000/svg">
<path d="M13.4579 14.375L16.2912 16.875L22.6662 11.25M17.7079 25C24.3583 25 29.7496 20.243 29.7496 14.375C29.7496 8.50697 24.3583 3.75 17.7079 3.75C11.0575 3.75 5.66622 8.50697 5.66622 14.375C5.66622 15.5625 5.887 16.7045 6.29432 17.7708C6.44761 18.172 6.52425 18.3727 6.53807 18.5268C6.55172 18.679 6.54141 18.7857 6.49873 18.9337C6.45551 19.0835 6.36009 19.2394 6.16926 19.551L3.85208 23.3354C3.52156 23.8753 3.3563 24.1452 3.39329 24.3535C3.4255 24.5349 3.54653 24.6947 3.72421 24.7903C3.92822 24.9001 4.27406 24.8686 4.96573 24.8055L12.2205 24.1438C12.4402 24.1237 12.5501 24.1137 12.6502 24.1171C12.7487 24.1204 12.8182 24.1286 12.9142 24.1481C13.0119 24.168 13.1346 24.2097 13.3802 24.2932C14.7233 24.7497 16.1824 25 17.7079 25Z" stroke="black" stroke-width="2" stroke-linecap="round" stroke-linejoin="round"/>
</svg>
